<?xml version="1.0" standalone="no"?>
<svg viewBox="0 0 200 200" xmlns="http://www.w3.org/2000/svg">
  <path fill="#EAE5FB" d="M40.5,-68.2C53.8,-62.6,66.6,-54.2,74.6,-42.4C82.7,-30.6,85.9,-15.3,86,0C86,15.3,82.8,30.6,71.7,37.2C60.6,43.7,41.6,41.4,28.3,46.9C15.1,52.4,7.5,65.7,-3.2,71.2C-14,76.8,-27.9,74.7,-37.1,66.8C-46.3,59,-50.6,45.4,-54.6,33.3C-58.7,21.2,-62.3,10.6,-67.5,-3C-72.8,-16.6,-79.6,-33.3,-76.9,-47.6C-74.2,-61.9,-61.9,-74,-47.5,-79C-33.1,-84,-16.6,-81.9,-1.5,-79.4C13.7,-76.9,27.3,-73.9,40.5,-68.2Z" transform="translate(100 100)" />
</svg>
